<?xml version="1.0"?>
<svg xmlns:rdf="http://www.w3.org/1999/02/22-rdf-syntax-ns#" xmlns="http://www.w3.org/2000/svg" xmlns:cc="http://web.resource.org/cc/" xmlns:xlink="http://www.w3.org/1999/xlink" xmlns:dc="http://purl.org/dc/elements/1.1/" xmlns:svg="http://www.w3.org/2000/svg" fill-rule="evenodd" viewBox="0 0 23000 27000" version="1.1">
  <g id="Default">
    <desc>Master slide</desc>
    <g fill="none">
      <rect y="-14" x="-14" width="23030" height="27030"/>
    </g>
  </g>
  <g id="page1">
    <desc>Slide</desc>
    <g>
      <desc>Drawing</desc>
      <path d="m12997 8810v2h-186v-2h186z"/>
      <path d="m12997 8813l-93-1h93v1z"/>
      <path d="m12997 8813c-4 246-57 481-150 693l-85-37-85-37c83-191 130-401 134-621l93 1 93 1z"/>
      <path d="m12847 9506c-93 213-225 405-388 566l-66-67-65-66c146-144 265-316 349-507l85 37 85 37z"/>
      <path d="m12459 10072c-163 160-357 290-571 380l-36-85-36-86c192-81 366-198 512-342l65 66 66 67z"/>
      <path d="m11888 10452c-215 90-450 140-697 140v-186c222 0 433-45 625-125l36 86 36 85z"/>
      <path d="m11191 10592c-249 0-486-51-702-142l36-86 36-85c194 82 407 127 630 127v186z"/>
      <path d="m10489 10450c-216-91-411-224-574-387l66-66 65-65c147 146 321 265 515 347l-36 85-36 86z"/>
      <path d="m9915 10063c-163-163-296-358-387-574l86-36 85-36c82 193 201 368 347 515l-65 65-66 66z"/>
      <path d="m9528 9489c-91-216-142-454-142-703h186c0 224 45 437 127 631l-85 36-86 36z"/>
      <path d="m9386 8786c0-249 51-487 142-703l86 36 85 37c-82 193-127 406-127 630h-186z"/>
      <path d="m9528 8083c91-216 224-410 387-574l66 66 65 66c-146 146-265 321-347 515l-85-37-86-36z"/>
      <path d="m9915 7509c163-163 358-295 574-386l36 85 36 86c-194 82-368 201-515 347l-65-66-66-66z"/>
      <path d="m10489 7123c216-91 453-142 702-142v186c-223 0-436 45-630 127l-36-86-36-85z"/>
      <path d="m11191 6981c249 0 487 51 703 142l-37 86-36 85c-194-82-407-127-630-127v-186z"/>
      <path d="m11894 7123c216 91 410 224 574 387l-66 66-66 65c-147-146-321-265-515-347l36-85 37-86z"/>
      <path d="m12468 7510c163 163 295 358 387 574l-86 36-85 36c-82-194-201-368-348-515l66-65 66-66z"/>
      <path d="m12855 8084c91 216 142 453 142 702h-186c0-223-45-436-127-630l85-36 86-36z"/>
      <path d="m12997 8786v6h-186v-6h186z"/>
    </g>
    <g>
      <desc>Drawing</desc>
      <path d="m6108 23075h9572v903h-9572v-903z"/>
    </g>
    <g>
      <desc>Drawing</desc>
      <path d="m7803 20618h6435v903h-6435v-903z"/>
      <path d="m14238 21521v-903 903z"/>
      <path d="m14238 21521h-138v-903h138v903z"/>
      <path d="m14100 20618v903-903z"/>
      <path d="m14100 20618h310v903h-310v-903z"/>
    </g>
    <g>
      <desc>Drawing</desc>
      <path d="m9243 18162h5548v903h-5548v-903z"/>
      <path d="m14791 19065v-903 903z"/>
      <path d="m14791 19065h-1694v-903h1694v903z"/>
    </g>
    <g>
      <desc>Drawing</desc>
      <path d="m16885 1543l18 14-113 145-113 145-18-14 113-145 113-145z"/>
      <path d="m16905 1558l-115 144 113-145h1l1 1z"/>
      <path d="m16905 1558c528 420 1008 898 1432 1423l-143 116-143 115c-407-504-869-962-1376-1366l115-144 115-144z"/>
      <path d="m18337 2981c424 525 792 1098 1093 1709l-165 82-165 81c-289-587-642-1137-1049-1641l143-115 143-116z"/>
      <path d="m19430 4690c302 611 537 1261 697 1940l-179 42-179 42c-154-651-379-1274-669-1861l165-81 165-82z"/>
      <path d="m20127 6630c160 679 245 1386 245 2114h-368c0-698-81-1378-235-2030l179-42 179-42z"/>
      <path d="m20372 8744c0 829-110 1633-316 2397l-178-48-178-48c198-733 304-1505 304-2301h368z"/>
      <path d="m20056 11141c-207 764-509 1489-894 2161l-159-92-160-91c369-645 660-1340 857-2074l178 48 178 48z"/>
      <path d="m19162 13302c-385 671-852 1290-1388 1841l-132-128-132-129c515-529 963-1122 1333-1767l160 91 159 92z"/>
      <path d="m17774 15143c-535 551-1140 1035-1799 1439l-96-157-96-157c633-387 1213-852 1727-1382l132 129 132 128z"/>
    </g>
    <g>
      <desc>Drawing</desc>
      <path d="m11713 8617v42h-1128v-42h1128z"/>
      <path d="m11713 8659c0 36 0 82 1 137l-564 3-564 3c-1-57-1-105-1-143h1128z"/>
      <path d="m11714 8796v197h-1128v-191l564-3 564-3z"/>
      <path d="m11714 8993c0 133-1 292-4 476l-564-10-564-11c3-176 4-328 4-455h1128z"/>
      <path d="m11710 9469c-4 185-10 394-20 626l-563-25-563-24c9-221 15-421 18-598l564 11 564 10z"/>
      <path d="m11690 10095c-20 463-56 1015-121 1638l-561-59-561-59c62-597 97-1126 117-1569l563 24 563 25z"/>
      <path d="m10447 11615l561 59-561-59z"/>
      <path d="m11569 11733c-132 1245-379 2771-846 4422l-543-153-542-153c446-1581 683-3042 809-4234l561 59 561 59z"/>
      <path d="m10723 16155c-468 1657-1156 3439-2165 5190l-489-282-488-282c959-1664 1612-3358 2057-4932l542 153 543 153z"/>
      <path d="m8558 21345c-1013 1757-2350 3483-4112 5021l-371-425-371-425c1662-1450 2921-3078 3877-4735l488 282 489 282z"/>
    </g>
    <g>
      <desc>Drawing</desc>
      <path d="m11693 8596v42h-1128v-42h1128z"/>
      <path d="m11693 8638v143l-564-3-564-3v-137h1128z"/>
      <path d="m11693 8781c-1 55-1 119-1 191h-1128c0-74 0-140 1-197l564 3 564 3z"/>
      <path d="m11692 8972c0 127 1 279 4 455l-564 11-564 10c-3-184-4-343-4-476h1128z"/>
      <path d="m11696 9427c3 177 9 377 19 598l-564 24-563 25c-10-232-16-441-20-626l564-10 564-11z"/>
      <path d="m11715 10025c19 443 54 972 116 1569l-560 59-561 59c-66-623-102-1175-122-1638l563-25 564-24z"/>
      <path d="m11831 11594c126 1192 363 2653 809 4234l-542 153-543 153c-466-1651-714-3177-845-4422l561-59 560-59z"/>
      <path d="m12640 15828c445 1574 1098 3268 2057 4932l-488 282-489 282c-1009-1751-1697-3533-2165-5190l543-153 542-153z"/>
      <path d="m14697 20760c956 1657 2215 3285 3877 4735l-371 425-371 425c-1762-1538-3099-3264-4112-5021l489-282 488-282z"/>
    </g>
    <g>
      <desc>Drawing</desc>
      <path d="m18735 295l10 9-123 137-123 137-10-9 123-137 123-137z"/>
      <path d="m18499 578l123-137-123 137z"/>
      <path d="m18745 304c1155 1033 2096 2300 2749 3727l-168 76-167 77c-631-1381-1542-2607-2660-3606l123-137 123-137z"/>
      <path d="m21494 4031c652 1427 1016 3013 1016 4685h-368c0-1617-352-3152-983-4532l167-77 168-76z"/>
      <path d="m22510 8716c0 962-121 1896-347 2787l-179-45-178-46c219-862 336-1765 336-2696h368z"/>
      <path d="m22163 11503c-227 892-560 1741-985 2533l-162-87-162-87c411-766 733-1587 952-2450l178 46 179 45z"/>
      <path d="m21178 14036c-425 793-942 1529-1536 2194l-137-123-137-122c575-644 1075-1356 1486-2123l162 87 162 87z"/>
      <path d="m19642 16230c-594 665-1266 1259-2001 1768l-105-151-105-151c712-493 1362-1068 1937-1711l137 122 137 123z"/>
    </g>
    <g>
      <desc>Drawing</desc>
      <path d="m15735 3052l14 11-114 145-114 145-14-11 114-145 114-145z"/>
      <path d="m15750 3064l-115 144 114-145v1h1z"/>
      <path d="m15750 3064c417 332 797 710 1132 1125l-143 115-143 116c-318-394-679-752-1076-1068l115-144 115-144z"/>
      <path d="m16882 4189c336 415 626 868 865 1351l-165 81-166 82c-226-459-502-889-820-1283l143-116 143-115z"/>
      <path d="m17747 5540c238 483 424 997 551 1534l-180 42-179 42c-120-509-296-997-523-1455l166-82 165-81z"/>
      <path d="m18298 7074c126 536 193 1096 193 1671h-368c0-546-64-1078-184-1587l179-42 180-42z"/>
      <path d="m18491 8745c0 655-87 1290-250 1895l-178-48-177-48c154-574 237-1177 237-1799h368z"/>
      <path d="m18241 10640c-163 604-402 1177-707 1708l-159-92-160-91c289-504 516-1048 671-1621l177 48 178 48z"/>
      <path d="m17534 12348c-304 530-673 1019-1097 1455l-132-128-132-128c402-414 753-878 1042-1382l160 91 159 92z"/>
      <path d="m16437 13803c-423 436-901 819-1422 1138l-96-157-96-157c495-303 948-666 1350-1080l132 128 132 128z"/>
    </g>
    <g>
      <desc>Drawing</desc>
      <path d="m14579 4651l11 8-108 149-108 149-11-8 108-149 108-149z"/>
      <path d="m14597 4664l-115 144 108-149 3 3 4 2z"/>
      <path d="m14597 4664c302 241 578 515 821 816l-143 116-143 115c-226-280-483-535-765-759l115-144 115-144z"/>
      <path d="m15418 5480c244 301 454 630 627 981l-165 81-165 81c-161-326-357-631-583-912l143-115 143-116z"/>
      <path d="m16045 6461c173 350 309 723 400 1112l-179 43-179 42c-85-362-211-709-372-1035l165-81 165-81z"/>
      <path d="m16445 7573c92 390 141 796 141 1213h-368c0-388-45-766-131-1128l179-42 179-43z"/>
      <path d="m16586 8786c0 476-63 937-182 1375l-177-48-178-48c110-407 169-836 169-1279h368z"/>
      <path d="m16404 10161c-118 439-291 855-512 1240l-160-91-160-92c206-358 367-745 477-1153l178 48 177 48z"/>
      <path d="m15892 11401c-221 385-489 740-797 1056l-132-128-132-128c286-294 536-624 741-983l160 92 160 91z"/>
      <path d="m15095 12457c-307 317-654 594-1032 826l-96-157-96-157c352-215 674-474 960-768l132 128 132 128z"/>
    </g>
    <g>
      <desc>Drawing</desc>
      <path d="m13560 5814l7 6-120 140-120 140-7-6 120-140 120-140z"/>
      <path d="m13327 6100l120-140-114 144-3-2-3-2z"/>
      <path d="m13561 5816c216 171 412 366 585 579l-143 116-143 116c-156-193-333-369-527-523l114-144 114-144z"/>
      <path d="m14146 6395c173 214 323 448 446 697l-165 82-165 81c-111-225-246-435-402-628l143-116 143-116z"/>
      <path d="m14592 7092c123 249 219 514 284 791l-179 42-179 42c-59-249-146-488-256-712l165-81 165-82z"/>
      <path d="m14876 7883c65 276 100 565 100 861h-368c0-267-31-527-90-777l179-42 179-42z"/>
      <path d="m14976 8744c0 338-45 666-129 977l-178-48-177-48c76-281 116-576 116-881h368z"/>
      <path d="m14847 9721c-84 312-208 607-365 881l-159-91-160-92c142-247 253-513 329-794l177 48 178 48z"/>
      <path d="m14482 10602c-157 274-347 526-566 750l-131-128-132-128c197-203 369-430 510-677l160 92 159 91z"/>
      <path d="m13916 11352c-218 225-464 422-733 587l-96-157-96-157c242-148 465-326 662-529l132 128 131 128z"/>
    </g>
    <g>
      <desc>Drawing</desc>
      <path d="m5978 1850l-18 14-113-145-113-145 18-14 113 145 113 145z"/>
      <path d="m5734 1574l113 145-115-144 1-1h1z"/>
      <path d="m5962 1863c-507 404-969 862-1376 1366l-143-115-143-116c424-525 904-1003 1432-1423l115 144 115 144z"/>
      <path d="m4586 3229c-407 504-759 1054-1049 1641l-165-81-165-82c301-611 669-1184 1093-1709l143 116 143 115z"/>
      <path d="m3537 4870c-289 587-515 1210-668 1861l-179-42-179-42c160-679 395-1329 696-1940l165 82 165 81z"/>
      <path d="m2869 6731c-154 652-235 1332-235 2030h-368c0-728 85-1435 245-2114l179 42 179 42z"/>
      <path d="m2634 8761c0 796 106 1568 303 2301l-177 48-178 48c-206-764-316-1568-316-2397h368z"/>
      <path d="m2937 11062c198 734 488 1429 858 2074l-160 91-160 92c-384-672-687-1397-893-2161l178-48 177-48z"/>
      <path d="m3795 13136c369 645 818 1238 1332 1767l-132 129-132 128c-536-551-1003-1170-1388-1841l160-92 160-91z"/>
      <path d="m5127 14903c515 530 1095 995 1728 1382l-96 157-96 157c-659-404-1264-888-1800-1439l132-128 132-129z"/>
    </g>
    <g>
      <desc>Drawing</desc>
      <path d="m4143 490l-11 9-117-142-117-142 11-9 117 142 117 142z"/>
      <path d="m3898 215l117 142-123-137 3-3 3-2z"/>
      <path d="m4138 494c-1118 999-2028 2225-2659 3606l-167-77-167-76c652-1427 1593-2694 2747-3727l123 137 123 137z"/>
      <path d="m1479 4100c-631 1380-982 2915-982 4532h-368c0-1672 364-3258 1016-4685l167 76 167 77z"/>
      <path d="m497 8632c0 931 116 1834 336 2696l-179 46-178 45c-227-891-347-1825-347-2787h368z"/>
      <path d="m833 11328c219 863 541 1684 952 2450l-163 87-162 87c-425-792-757-1641-984-2533l178-45 179-46z"/>
      <path d="m1785 13778c410 767 910 1479 1485 2122l-137 123-137 123c-594-665-1111-1401-1536-2194l162-87 163-87z"/>
      <path d="m3270 15900c576 644 1226 1219 1938 1712l-105 151-105 151c-735-509-1408-1103-2002-1768l137-123 137-123z"/>
    </g>
    <g>
      <desc>Drawing</desc>
      <path d="m7130 3358l-14 11-114-145-114-145 14-11 114 145 114 145z"/>
      <path d="m6888 3079l114 145-115-144h1v-1z"/>
      <path d="m7117 3368c-397 316-758 674-1076 1068l-143-116-143-115c335-415 715-793 1132-1125l115 144 115 144z"/>
      <path d="m6041 4436c-318 394-594 824-820 1283l-165-82-165-81c238-483 528-936 864-1351l143 115 143 116z"/>
      <path d="m5221 5719c-226 458-403 946-522 1455l-180-42-179-42c127-537 313-1051 551-1534l165 81 165 82z"/>
      <path d="m4699 7174c-121 509-184 1041-184 1587h-368c0-575 67-1135 193-1671l179 42 180 42z"/>
      <path d="m4515 8761c0 622 83 1225 237 1799l-177 48-178 47c-163-604-250-1239-250-1894h368z"/>
      <path d="m4752 10560c155 573 382 1117 671 1621l-160 91-160 92c-304-531-543-1104-706-1709l178-47 177-48z"/>
      <path d="m5423 12181c288 504 639 968 1041 1382l-132 128-132 128c-423-436-792-925-1097-1455l160-92 160-91z"/>
      <path d="m6464 13563c403 414 856 777 1351 1080l-96 157-96 157c-521-319-999-702-1423-1138l132-128 132-128z"/>
    </g>
    <g>
      <desc>Drawing</desc>
      <path d="m8281 4961l-10 8-115-144-115-144 10-8 115 144 115 144z"/>
      <path d="m8271 4969l-115-144 115 144z"/>
      <path d="m8271 4969c-282 224-539 479-765 759l-143-115-143-116c243-301 519-575 821-816l115 144 115 144z"/>
      <path d="m7506 5728c-226 281-422 586-583 912l-165-81-165-81c173-351 384-680 627-981l143 116 143 115z"/>
      <path d="m6923 6640c-161 326-286 673-371 1035l-180-42-179-43c92-389 227-762 400-1112l165 81 165 81z"/>
      <path d="m6552 7675c-86 362-131 740-131 1128h-368c0-417 49-823 140-1213l179 43 180 42z"/>
      <path d="m6421 8803c0 443 59 872 169 1279l-178 48-178 48c-118-438-181-899-181-1375h368z"/>
      <path d="m6590 10082c110 408 271 795 476 1153l-159 92-160 91c-221-385-394-801-513-1240l178-48 178-48z"/>
      <path d="m7066 11235c206 359 455 689 741 983l-132 128-132 128c-307-316-575-671-796-1056l160-91 159-92z"/>
      <path d="m7807 12218c286 294 609 553 961 768l-96 157-96 157c-378-232-725-509-1033-826l132-128 132-128z"/>
    </g>
    <g>
      <desc>Drawing</desc>
      <path d="m9308 6118l-8 6-110-147-110-147 8-6 110 147 110 147z"/>
      <path d="m9080 5830l110 147-115-144 2-2 3-1z"/>
      <path d="m9305 6121c-194 154-371 330-527 523l-143-116-143-115c173-214 368-409 583-580l115 144 115 144z"/>
      <path d="m8778 6644c-156 193-290 403-401 628l-165-81-165-82c122-249 272-482 445-696l143 115 143 116z"/>
      <path d="m8377 7272c-111 224-197 463-256 712l-179-42-179-42c65-277 161-542 284-791l165 82 165 81z"/>
      <path d="m8121 7984c-59 250-90 510-90 777h-368c0-296 35-585 100-861l179 42 179 42z"/>
      <path d="m8031 8761c0 305 40 600 116 881l-177 48-178 48c-84-311-129-639-129-977h368z"/>
      <path d="m8147 9642c76 281 187 547 329 794l-160 92-160 91c-157-274-280-569-364-881l178-48 177-48z"/>
      <path d="m8476 10436c141 247 313 474 510 677l-132 128-132 128c-218-224-409-476-566-750l160-91 160-92z"/>
      <path d="m8986 11113c197 202 419 381 662 529l-96 157-96 157c-269-165-515-362-734-587l132-128 132-128z"/>
    </g>
  </g>
  <metadata>
    <rdf:RDF>
      <cc:Work>
        <dc:format>image/svg+xml</dc:format>
        <dc:type rdf:resource="http://purl.org/dc/dcmitype/StillImage"/>
        <cc:license rdf:resource="http://creativecommons.org/licenses/publicdomain/"/>
        <dc:publisher>
          <cc:Agent rdf:about="http://openclipart.org/">
            <dc:title>Openclipart</dc:title>
          </cc:Agent>
        </dc:publisher>
        <dc:title>radio tower wireless</dc:title>
        <dc:date>2013-07-01T12:45:24</dc:date>
        <dc:description>originally uploaded by Corey Burger for OCAL 0.18 and a similar one with "blue" waves on this website. I changed it to black.(Was it barneypaytesiii?)</dc:description>
        <dc:source>http://openclipart.org/detail/179921/radio-tower-wireless-by-shared4you-179921</dc:source>
        <dc:creator>
          <cc:Agent>
            <dc:title>shared4you</dc:title>
          </cc:Agent>
        </dc:creator>
        <dc:subject>
          <rdf:Bag>
            <rdf:li>base station</rdf:li>
            <rdf:li>radio</rdf:li>
            <rdf:li>tower</rdf:li>
            <rdf:li>wireless</rdf:li>
          </rdf:Bag>
        </dc:subject>
      </cc:Work>
      <cc:License rdf:about="http://creativecommons.org/licenses/publicdomain/">
        <cc:permits rdf:resource="http://creativecommons.org/ns#Reproduction"/>
        <cc:permits rdf:resource="http://creativecommons.org/ns#Distribution"/>
        <cc:permits rdf:resource="http://creativecommons.org/ns#DerivativeWorks"/>
      </cc:License>
    </rdf:RDF>
  </metadata>
</svg>
